inDegrees=no
num_controls=7
num_derivatives=13
num_iterations=93
num_multipliers=7
num_parameters=0
num_slacks=7
num_states=26
objective=0.461634
objective_accelerations=0.025165
objective_balance=0.007541
objective_effort=0.026576
objective_height=0.397023
objective_ligament=0.005329
solver_duration=1392.094111
status=Solve_Succeeded
success=true
DataType=double
version=3
OpenSimVersion=4.5
endheader
time	/jointset/ground_pelvis/pelvis_tilt/value	/jointset/ground_pelvis/pelvis_tx/value	/jointset/ground_pelvis/pelvis_ty/value	/jointset/hip_l/hip_flexion_l/value	/jointset/hip_l/hip_adduction_l/value	/jointset/hip_l/hip_rotation_l/value	/jointset/back/lumbar_extension/value	/jointset/patellofemoral_l/patellar_flexion_l/value	/jointset/knee_l/knee_flexion_l/value	/jointset/knee_l/knee_adduction_l/value	/jointset/knee_l/knee_rotation_l/value	/jointset/ankle_l/ankle_angle_l/value	/jointset/subtalar_l/subtalar_angle_l/value	/jointset/ground_pelvis/pelvis_tilt/speed	/jointset/ground_pelvis/pelvis_tx/speed	/jointset/ground_pelvis/pelvis_ty/speed	/jointset/hip_l/hip_flexion_l/speed	/jointset/hip_l/hip_adduction_l/speed	/jointset/hip_l/hip_rotation_l/speed	/jointset/back/lumbar_extension/speed	/jointset/patellofemoral_l/patellar_flexion_l/speed	/jointset/knee_l/knee_flexion_l/speed	/jointset/knee_l/knee_adduction_l/speed	/jointset/knee_l/knee_rotation_l/speed	/jointset/ankle_l/ankle_angle_l/speed	/jointset/subtalar_l/subtalar_angle_l/speed	/forceset/tau_hip_flexion_l	/forceset/tau_hip_adduction_l	/forceset/tau_hip_rotation_l	/forceset/tau_knee_flexion_l	/forceset/tau_ankle_angle_l	/forceset/tau_subtalar_angle_l	/forceset/tau_lumbar_extension	lambda_cid13_p0	lambda_cid13_p1	lambda_cid13_p2	lambda_cid13_p3	lambda_cid13_p4	lambda_cid13_p5	lambda_cid14_p0	/jointset/ground_pelvis/pelvis_tilt/accel	/jointset/ground_pelvis/pelvis_tx/accel	/jointset/ground_pelvis/pelvis_ty/accel	/jointset/hip_l/hip_flexion_l/accel	/jointset/hip_l/hip_adduction_l/accel	/jointset/hip_l/hip_rotation_l/accel	/jointset/back/lumbar_extension/accel	/jointset/patellofemoral_l/patellar_flexion_l/accel	/jointset/knee_l/knee_flexion_l/accel	/jointset/knee_l/knee_adduction_l/accel	/jointset/knee_l/knee_rotation_l/accel	/jointset/ankle_l/ankle_angle_l/accel	/jointset/subtalar_l/subtalar_angle_l/accel	gamma_cid13_p0	gamma_cid13_p1	gamma_cid13_p2	gamma_cid13_p3	gamma_cid13_p4	gamma_cid13_p5	gamma_cid14_p0
0.5	-0.3768409923174382	-0.04514127204275978	0.827657557732374	0.9402232710288775	-0.2962733343229263	-0.1615987267347715	-0.2936607460686717	0.3639042080961105	0.3639042080961905	-0.1744836148920145	0.1744263956671551	-0.05197782506062354	-0.05030652295806886	-0.5883960475892916	-0.255169085409989	-0.2419132637293922	1.528603186475679	-0.07386206148467632	0.3009025027258283	-0.6350111626841874	0.9059830142505083	0.905983014250739	0.0004391797502048156	0.0005216762241599792	-0.009695662742695352	-0.08224198471264159	-0.1993035776514437	0.02195125616991211	-0.01612902339041606	-0.1397871756627237	0.1386986348220344	0.03051597783574237	0.1881417539371204	4.437813108246132	-18.40312180368958	7.526563992780508	0.3978909646251266	-615.9065347672059	-61.10637500781876	-40.92099830032775	0.2742602974557899	0.3559024351350562	-0.1063872577559399	-0.8909924964801352	0.1924567766854964	-0.1720655234496354	1.127238092168898	-0.5319990254845864	-0.5319990254845538	0.00979419558029943	-0.002507929080118819	0.13152385039756	0.2154875280210824	9.110060855381239e-09	-2.07422920324842e-07	3.987303440732772e-08	-2.280796951565297e-08	-6.216466488187448e-08	-7.51990775451897e-09	-2.579528090704671e-08
0.51	-0.3827103199654788	-0.04767483571187611	0.8252335658443651	0.9554623452664084	-0.2970025883358027	-0.1585991003999825	-0.2999540143173037	0.3729360362468464	0.372936036246917	-0.1744792856821167	0.1744319444502007	-0.05206839060578933	-0.05111843886529428	-0.5853977803081383	-0.2515128749038899	-0.242840511251413	1.519011621257479	-0.07198624500740686	0.2989915455631035	-0.6235704839098322	0.9002562718457009	0.9002562718459006	0.0004205738341712306	0.0005808228942238134	-0.008421453922459941	-0.08013854633670318	-0.205623042203654	0.02319016270302347	-0.01593033385907757	-0.1397295145574174	0.1388291022406776	0.0314638619647968	0.1931220822451437	4.377269054379306	-18.71636359032622	7.476187788845939	0.2424967221746728	-618.13328073434	-60.90852988239588	-40.77135738554264	0.3233662510948677	0.3750916275806542	-0.07921479050254579	-1.023244410662359	0.185548442087844	-0.2053212871462021	1.16328323987744	-0.611958387064386	-0.6119583870690585	-0.008635595796733651	0.009016280645519872	0.1247690781967513	0.2081972178220945	1.031027358976942e-08	-2.031113872656652e-07	3.444579589253807e-08	-2.455672311993164e-08	-5.49392885312941e-08	-6.498422813289221e-09	-2.483115354962543e-08
0.52	-0.3885475136791762	-0.0501709150220848	0.8228016372229207	0.970599502676523	-0.2977130033121392	-0.1556195257317129	-0.3061307156842302	0.3819068076657196	0.3819068076657764	-0.1744753320535017	0.174437862763062	-0.05214633412667694	-0.05190923534367192	-0.5819692607210007	-0.2476722136284666	-0.2435006104165271	1.508219820992376	-0.07009425417652977	0.2968921694218878	-0.6116977863431343	0.8937716678774701	0.8937716678776393	0.0003640634940753698	0.0005955821881224957	-0.007171257887815118	-0.07801809894308957	-0.2119425067558715	0.02442906923613358	-0.0157316443277624	-0.1396718534521061	0.1389595696593223	0.03241174609385047	0.1981024105531597	4.313585223074484	-19.02913574808687	7.425828218522232	0.08254287121661828	-620.4159078732945	-60.72624746901099	-40.61202064853992	0.3603107586525554	0.392792588999947	-0.05295758637461011	-1.13103950586089	0.1956916474070167	-0.2097493191478121	1.213641850637353	-0.6835713381692462	-0.6835713381691435	0.002213310767826356	-0.01138540431314947	0.1267212932795317	0.2188893315561361	1.137930636084082e-08	-1.97900962605556e-07	2.919716297114032e-08	-2.611227411270622e-08	-4.790424613652311e-08	-5.517614081324919e-09	-2.379705042356652e-08
0.53	-0.3943483134258036	-0.05262768599553479	0.8203644516692051	0.9856228597860617	-0.298404416153286	-0.1526619064487337	-0.3121865281230709	0.390809059843071	0.3908090598431561	-0.1744720697848031	0.1744437587678911	-0.05221185082043825	-0.05267873152240376	-0.5781195312279774	-0.2436529515302604	-0.2438901443514782	1.496254428229965	-0.06818713695131227	0.2945977539244672	-0.5993966657539542	0.8865568932413846	0.8865568932415374	0.000283435360419641	0.0005803181289456296	-0.005934577701956648	-0.07587939254327118	-0.2181685128948733	0.02560000802743937	-0.01556436974330607	-0.139732213878982	0.139244424315413	0.03328664468008997	0.2030002679668019	4.294886693635872	-19.31960569036852	7.373647925126057	-0.09926025938627248	-622.7331046628399	-60.51883332637895	-40.44307758564906	0.4079785482263846	0.4108420642605384	-0.02500674256662257	-1.258864826516354	0.1884271712437197	-0.2444030909805371	1.248552513677992	-0.7587070282425709	-0.758707028245113	-0.01397745944197183	0.002889588295847041	0.1217676584732626	0.2116501723197072	1.246429650886404e-08	-1.92008705707374e-07	2.356635559926711e-08	-2.756903956516446e-08	-4.094666929717637e-08	-4.664505250928168e-09	-2.262035491744335e-08
0.54	-0.4001084809767793	-0.05504339453919682	0.8179247596870379	1.000520647834959	-0.2990767167399487	-0.149728254405919	-0.3181172882858959	0.3996355089736778	0.3996355089737921	-0.174469769114237	0.1744493994311339	-0.05226507545688793	-0.0534267828615124	-0.5738428215909913	-0.2394597276708781	-0.2440018961068819	1.483106008864149	-0.0662718032795075	0.2920987213893924	-0.5866873311399889	0.8786110585287228	0.8786110585288586	0.0001717438663744063	0.0005445138703997325	-0.004712846426727484	-0.0737291310184522	-0.2243945190338909	0.0267709468187356	-0.01539709515882881	-0.1397925743058658	0.1395292789715002	0.03416154326631952	0.2078981253804337	4.272171532483064	-19.60968855066942	7.321767074788375	-0.2828644143313642	-625.1187134819289	-60.32804798891033	-40.26470843080744	0.4457067874450503	0.4275849412352244	0.002598849534863199	-1.367644826541706	0.1973349367244663	-0.2506727266786668	1.295284655594374	-0.8297833534845337	-0.8297833534845281	-0.003999361310090519	-0.01549344418695551	0.1237315111537726	0.2212003565562717	1.356694162713182e-08	-1.853620812266436e-07	1.751271692048487e-08	-2.89165103772727e-08	-3.407479902978837e-08	-3.95268141801041e-09	-2.128589762912142e-08
0.55	-0.4058237991905597	-0.05741632586482398	0.8154853445666174	1.015281185313451	-0.2997297702260686	-0.146820600007892	-0.3239189354122892	0.408378963335367	0.4083789633354296	-0.1744685857189023	0.174454574018016	-0.0523061004955057	-0.0541532117142509	-0.5691510989922528	-0.2350996205253806	-0.2438333024897837	1.468809990007149	-0.06433446237389893	0.2893986813005475	-0.5735804618328711	0.86996299645616	0.8699629964560835	6.924549419952956e-05	0.0004859583890775723	-0.003491893315044454	-0.07155118970529133	-0.2304780664221912	0.02785051093325452	-0.01526333188081338	-0.1399885296520492	0.1399939881395567	0.0349697911198368	0.2126723730817179	4.305434426515582	-19.88228096801123	7.268987765988713	-0.4968556295113757	-627.498234579061	-60.12560057778458	-40.07713854854453	0.4913641282790698	0.4442552105199156	0.03115737565846538	-1.489304499245123	0.1926258974975827	-0.2847137596716603	1.327632914101233	-0.89983612545021	-0.8998361254820957	-0.01276043222120435	-0.001718595395394206	0.1213181715755403	0.2169350427309783	1.467056292504561e-08	-1.790588661745826e-07	1.122630998511418e-08	-3.015854683634061e-08	-2.763713205327654e-08	-3.123372286459675e-09	-1.994998609474569e-08
0.5600000000000001	-0.411490108351913	-0.05974484979713365	0.8130490489339401	1.029893017786581	-0.3003633118571298	-0.1439409548326908	-0.3295876648764449	0.4170324333780688	0.4170324333780775	-0.1744683043786951	0.1744590266510287	-0.05233490781091742	-0.05485769234905077	-0.5640410111058862	-0.2305782490073786	-0.243377998558239	1.45336500779151	-0.06236943226754738	0.286496876824332	-0.5601037986925241	0.8606141947312732	0.8606141947309842	-8.66715997702508e-06	0.0004001230961325723	-0.002269301787362071	-0.06933948743073103	-0.2365616138105001	0.02893007504776885	-0.01512956860278417	-0.1401844849982356	0.1404586973076125	0.03577803897334949	0.2174466207829954	4.333875522994079	-20.15456659401874	7.21677344151609	-0.7102759847269121	-629.957751186647	-59.94052138723077	-39.88067382886425	0.5293798449705723	0.4598378157361867	0.05994091242419287	-1.597437498269283	0.202872776873056	-0.2910256041527828	1.369243422240212	-0.9699312839493583	-0.9699312839493548	0.0009177822895626063	-0.02094940651152351	0.1240591943537651	0.2279525488361738	1.577535563853461e-08	-1.731677424369249e-07	4.660581141837343e-09	-3.127406207176011e-08	-2.172050902581609e-08	-2.15308079654937e-09	-1.861232946510538e-08
